<?xml version="1.0" encoding="UTF-8" standalone="no"?>
<!-- Created with Inkscape (http://www.inkscape.org/) -->

<svg
   width="48"
   height="48"
   viewBox="0 0 12.7 12.7"
   version="1.1"
   id="svg5"
   inkscape:version="1.4.2 (f4327f4, 2025-05-13)"
   sodipodi:docname="etTextOnPathIcon.svg"
   xmlns:inkscape="http://www.inkscape.org/namespaces/inkscape"
   xmlns:sodipodi="http://sodipodi.sourceforge.net/DTD/sodipodi-0.dtd"
   xmlns="http://www.w3.org/2000/svg"
   xmlns:svg="http://www.w3.org/2000/svg">
  <sodipodi:namedview
     id="namedview7"
     pagecolor="#ffffff"
     bordercolor="#000000"
     borderopacity="0.25"
     inkscape:showpageshadow="2"
     inkscape:pageopacity="0.0"
     inkscape:pagecheckerboard="0"
     inkscape:deskcolor="#d1d1d1"
     inkscape:document-units="px"
     showgrid="false"
     inkscape:zoom="7.6145835"
     inkscape:cx="-6.9603282"
     inkscape:cy="25.14911"
     inkscape:current-layer="g4"
     showguides="true" />
  <defs
     id="defs2">
    <inkscape:path-effect
       effect="bspline"
       id="path-effect11338"
       is_visible="true"
       lpeversion="1"
       weight="33.333333"
       steps="2"
       helper_size="0"
       apply_no_weight="true"
       apply_with_weight="true"
       only_selected="false" />
    <inkscape:path-effect
       effect="bspline"
       id="path-effect11271"
       is_visible="true"
       lpeversion="1"
       weight="33.333333"
       steps="2"
       helper_size="0"
       apply_no_weight="true"
       apply_with_weight="true"
       only_selected="false" />
  </defs>
  <g
     inkscape:label="Ebene 3"
     inkscape:groupmode="layer"
     id="g38597"
     style="display:inline">
    <g
       aria-label="SVG"
       id="text1396"
       style="font-weight:bold;font-size:8.5px;font-family:'Intruding Cat';-inkscape-font-specification:'Intruding Cat Bold';text-align:center;text-anchor:middle;fill:#00ff00;stroke-width:0.1;stroke-linecap:round;stroke-linejoin:round;paint-order:markers fill stroke">
      <g
         id="g4"
         transform="translate(-0.9264873,3.6139451)">
        <path
           style="font-size:12px;font-family:Garamond;-inkscape-font-specification:'Garamond Bold';fill:#0000ff"
           d="M 1.6613515,-0.23311166 1.997384,-0.37115302 q 0.06243,0.0440334 0.089822,0.0644533 0.2586273,0.19781295 0.3733226,0.24571403 0.079364,-0.007265 0.7514294,-0.28334734 0.4173307,-0.17143846 0.7402969,-0.31044674 L 4.0539731,-0.71556887 4.707552,-0.99039204 5.9368977,-1.4827353 7.6116404,-2.1707156 7.911375,-2.3508564 q 0.05042,-0.077723 0.044886,-0.3224955 0.00164,-0.057685 0.00396,-0.1599882 l 0.2362483,-0.1033847 q 0.054199,-0.022265 0.1648228,-0.061374 0.1590466,0.3717452 0.4685264,1.1251084 l 0.203576,0.4801428 0.1081302,0.2786403 q 0.057888,0.14091687 0.078512,0.25280047 -0.193274,0.16174357 -0.3546108,0.24702389 Q 8.6376766,-0.76786993 8.3049013,-1.0999203 7.9775459,-1.4341972 7.916375,-1.4597444 q -0.093983,-0.043741 -0.1896066,-0.029797 -0.1412095,0.026336 -1.1601468,0.444913 -0.1517566,0.0623413 -0.3704857,0.17753262 0.054313,0.22473413 0.1099751,0.36023111 L 6.6098783,0.21717298 7.2644615,1.8106175 7.9919331,3.5198134 8.2759548,4.2266242 q 0.1536266,0.3739716 0.2965917,0.5369497 0.1023034,0.00232 0.3487171,-0.060904 0.045585,-0.012392 0.4366946,-0.078041 0.1781817,-0.028855 0.3228772,-0.031285 0.1072524,0.1839833 0.1250642,0.2273424 0.020038,0.048779 0.041629,0.1475962 Q 9.7305174,5.0226853 9.6546391,5.053856 9.0963915,5.2831827 8.6905749,5.4055497 8.2825318,5.5224967 7.2581746,5.9433002 7.0955783,6.0100944 6.3309936,6.4001981 6.0309664,6.5487866 5.9388284,6.5866366 5.9000114,6.5075649 5.8767798,6.4664323 L 5.820151,6.3440016 5.8023392,6.3006426 Q 5.8570088,6.0944836 6.1564508,5.8827905 6.6644564,5.5157402 6.8367221,5.3182837 6.8486179,5.1930413 6.790437,5.0205721 6.5611994,4.3546012 5.9778633,2.9345929 L 5.109157,0.89701087 q -0.3473299,-0.84550122 -0.4533228,-1.0109984 -0.030878,-0.044326 -0.066883,-0.0548731 -0.038232,-0.015967 -0.089237,-0.001349 Q 4.3227916,-0.12286813 3.3959922,0.25785883 2.8865236,0.46714733 2.753164,0.63595234 2.575771,0.86718767 2.3567999,1.660271 2.2925501,1.889369 2.2275115,1.9160867 1.9247617,1.8884274 1.8209062,1.8360733 1.8442017,1.4147605 1.7081327,0.23542793 1.6679418,-0.10912876 1.6613515,-0.23311166 Z"
           id="text410"
           aria-label="T" />
        <path
           style="fill:none;stroke:#ff00ff;stroke-width:0.75;stroke-linecap:round;stroke-linejoin:round;stroke-miterlimit:8;stroke-dasharray:none;paint-order:markers fill stroke;stroke-opacity:1"
           d="M 2.6117129,8.46061 C 2.8723148,8.4258631 13.209524,4.1346183 13.209524,4.1346183"
           id="path1" />
      </g>
    </g>
  </g>
</svg>
